<svg id="visual" viewBox="0 0 675 900" width="675" height="900" xmlns="http://www.w3.org/2000/svg" xmlns:xlink="http://www.w3.org/1999/xlink" version="1.1"><rect x="0" y="0" width="675" height="900" fill="#1c2a38"></rect><path d="M0 347L16 348.2C32 349.3 64 351.7 96.2 351C128.3 350.3 160.7 346.7 192.8 339.2C225 331.7 257 320.3 289.2 330C321.3 339.7 353.7 370.3 385.8 372.7C418 375 450 349 482.2 353.8C514.3 358.7 546.7 394.3 578.8 409.8C611 425.3 643 420.7 659 418.3L675 416L675 0L659 0C643 0 611 0 578.8 0C546.7 0 514.3 0 482.2 0C450 0 418 0 385.8 0C353.7 0 321.3 0 289.2 0C257 0 225 0 192.8 0C160.7 0 128.3 0 96.2 0C64 0 32 0 16 0L0 0Z" fill="#1e89aa"></path><path d="M0 324L16 324.7C32 325.3 64 326.7 96.2 328.7C128.3 330.7 160.7 333.3 192.8 325.8C225 318.3 257 300.7 289.2 296C321.3 291.3 353.7 299.7 385.8 303.7C418 307.7 450 307.3 482.2 300C514.3 292.7 546.7 278.3 578.8 269C611 259.7 643 255.3 659 253.2L675 251L675 0L659 0C643 0 611 0 578.8 0C546.7 0 514.3 0 482.2 0C450 0 418 0 385.8 0C353.7 0 321.3 0 289.2 0C257 0 225 0 192.8 0C160.7 0 128.3 0 96.2 0C64 0 32 0 16 0L0 0Z" fill="#009fb8"></path><path d="M0 177L16 177.7C32 178.3 64 179.7 96.2 194.2C128.3 208.7 160.7 236.3 192.8 236C225 235.7 257 207.3 289.2 205C321.3 202.7 353.7 226.3 385.8 231.3C418 236.3 450 222.7 482.2 222.5C514.3 222.3 546.7 235.7 578.8 232C611 228.3 643 207.7 659 197.3L675 187L675 0L659 0C643 0 611 0 578.8 0C546.7 0 514.3 0 482.2 0C450 0 418 0 385.8 0C353.7 0 321.3 0 289.2 0C257 0 225 0 192.8 0C160.7 0 128.3 0 96.2 0C64 0 32 0 16 0L0 0Z" fill="#00b6c2"></path><path d="M0 143L16 146C32 149 64 155 96.2 163.5C128.3 172 160.7 183 192.8 182.3C225 181.7 257 169.3 289.2 161.8C321.3 154.3 353.7 151.7 385.8 156.7C418 161.7 450 174.3 482.2 173.5C514.3 172.7 546.7 158.3 578.8 153.8C611 149.3 643 154.7 659 157.3L675 160L675 0L659 0C643 0 611 0 578.8 0C546.7 0 514.3 0 482.2 0C450 0 418 0 385.8 0C353.7 0 321.3 0 289.2 0C257 0 225 0 192.8 0C160.7 0 128.3 0 96.2 0C64 0 32 0 16 0L0 0Z" fill="#00ccc5"></path><path d="M0 107L16 104C32 101 64 95 96.2 93.2C128.3 91.3 160.7 93.7 192.8 90.2C225 86.7 257 77.3 289.2 72.3C321.3 67.3 353.7 66.7 385.8 73.2C418 79.7 450 93.3 482.2 96.7C514.3 100 546.7 93 578.8 87.5C611 82 643 78 659 76L675 74L675 0L659 0C643 0 611 0 578.8 0C546.7 0 514.3 0 482.2 0C450 0 418 0 385.8 0C353.7 0 321.3 0 289.2 0C257 0 225 0 192.8 0C160.7 0 128.3 0 96.2 0C64 0 32 0 16 0L0 0Z" fill="#27e1c1"></path></svg>