<svg width="13" height="13" viewBox="0 0 13 13" fill="none" xmlns="http://www.w3.org/2000/svg">
<path d="M2.24653 0.513058C1.75763 0.0241602 0.967661 0.0241602 0.478763 0.513058C-0.010135 1.00196 -0.010135 1.79193 0.478763 2.28083L4.45624 6.2583L0.478763 10.2358C-0.010135 10.7247 -0.010135 11.5146 0.478763 12.0035C0.967661 12.4924 1.75763 12.4924 2.24653 12.0035L6.22401 8.02607L10.2015 12.0035C10.6904 12.4924 11.4803 12.4924 11.9692 12.0035C12.4581 11.5146 12.4581 10.7247 11.9692 10.2358L7.99177 6.2583L11.9692 2.28083C12.4581 1.79193 12.4581 1.00196 11.9692 0.513058C11.4803 0.0241602 10.6904 0.0241602 10.2015 0.513058L6.22401 4.49053L2.24653 0.513058Z" fill="white"/>
</svg>
