<svg width="18" height="20" viewBox="0 0 18 20" fill="none" xmlns="http://www.w3.org/2000/svg">
<path d="M9.21576 10C10.5418 10 11.8136 9.47322 12.7513 8.53553C13.689 7.59785 14.2158 6.32608 14.2158 5C14.2158 3.67392 13.689 2.40215 12.7513 1.46447C11.8136 0.526784 10.5418 0 9.21576 0C7.88968 0 6.61791 0.526784 5.68023 1.46447C4.74254 2.40215 4.21576 3.67392 4.21576 5C4.21576 6.32608 4.74254 7.59785 5.68023 8.53553C6.61791 9.47322 7.88968 10 9.21576 10ZM7.4306 11.875C3.58295 11.875 0.465759 14.9922 0.465759 18.8398C0.465759 19.4805 0.985291 20 1.62592 20H16.8056C17.4462 20 17.9658 19.4805 17.9658 18.8398C17.9658 14.9922 14.8486 11.875 11.0009 11.875H7.4306Z" fill="white"/>
</svg>
